<svg width="44" height="44" viewBox="0 0 44 44" fill="none" xmlns="http://www.w3.org/2000/svg">
<path d="M20.2002 14.4C20.9002 15 21.4002 15.6 21.7002 16.3H12.3002V18.3H22.0002C21.9002 19.5 21.4002 20.4 20.5002 21.1C19.6002 21.8 18.6002 22.2 17.5002 22.2H13.5002V24.1L21.3002 31.9H23.9002L23.8002 31.7999L15.9002 23.9H17.4002C19.1002 23.9 20.6002 23.4 21.8002 22.3C23.0002 21.2 23.7002 19.9 23.8002 18.2H26.2002V16.2H23.7002C23.6002 15.7 23.4002 15.2 23.0002 14.7C22.7002 14.2 22.4002 13.9 22.0002 13.5H26.2002V11.7H12.2002V13.5H17.4002C18.5002 13.7 19.4002 13.9 20.2002 14.4Z" fill="white"/>
<path d="M24.1002 31.9H21.3002L13.5002 24V21.9H17.6002C18.7002 21.9 19.7002 21.5 20.6002 20.8C21.4002 20.1 21.9002 19.2 22.0002 18.1H12.3002V16.1H21.7002C21.4002 15.4 20.9002 14.8 20.2002 14.3L20.1002 14.2C19.3002 13.7 18.5002 13.5 17.5002 13.5H12.2002V11.5H26.4002V13.5H22.2002C22.5002 13.8 22.9002 14.2 23.1002 14.6C23.4002 15.1 23.6002 15.6 23.8002 16.1H26.4002V18.1H24.0002C23.9002 19.8 23.2002 21.1 22.0002 22.2C20.7002 23.3 19.2002 23.8 17.5002 23.8H16.2002L24.1002 31.9ZM21.3002 31.8H23.8002L15.9002 23.8H17.5002C19.2002 23.8 20.7002 23.3 21.9002 22.2C23.1002 21.2 23.8002 19.8 23.9002 18.1H26.3002V16.3H23.7002C23.6002 15.8 23.4002 15.3 23.0002 14.8C22.7002 14.4 22.4002 14 22.0002 13.7L21.9002 13.6H26.3002V11.8H12.3002V13.6H17.5002C18.5002 13.6 19.4002 13.9 20.1002 14.4H20.2002C20.9002 14.9 21.4002 15.5 21.7002 16.3V16.4H12.2002V18.2H21.9002V18.3C21.8002 19.5 21.3002 20.4 20.4002 21.1C19.5002 21.8 18.5002 22.2 17.3002 22.2H13.3002V24.1L21.3002 31.8Z" fill="white"/>
<path fill-rule="evenodd" clip-rule="evenodd" d="M28.3 41C26.3 41.7 24.2 42 22 42C11 42 2 33 2 22C2 11 11 2 22 2C33 2 42 11 42 22C42 24.2 41.6 26.3 41 28.3C41.6 28.8 42.1 29.4 42.5 30C43.5 27.5 44 24.8 44 22C44 9.8 34.2 0 22 0C9.8 0 0 9.8 0 22C0 34.2 9.8 44 22 44C24.8 44 27.5 43.5 30 42.5C29.4 42.1 28.8 41.6 28.3 41Z" fill="white"/>
<path d="M34.5 44C29.3 44 25 39.7 25 34.5C25 29.3 29.3 25 34.5 25C39.7 25 44 29.3 44 34.5C44 39.7 39.7 44 34.5 44ZM34.5 27C30.4 27 27 30.4 27 34.5C27 38.6 30.4 42 34.5 42C38.6 42 42 38.6 42 34.5C42 30.4 38.6 27 34.5 27Z" fill="white"/>
<path d="M34.4999 39.2C34.3999 39.2 34.2999 39.2 34.1999 39.1C34.0999 39.1 33.9999 39 33.9999 38.9L30.4999 35.4C30.1999 35.1 30.1999 34.6 30.4999 34.3C30.7999 34 31.2999 34 31.5999 34.3L33.7999 36.5V30.8C33.7999 30.4 34.0999 30 34.5999 30C35.0999 30 35.3999 30.3 35.3999 30.8V36.5L37.5999 34.3C37.8999 34 38.3999 34 38.6999 34.3C38.9999 34.6 38.9999 35.1 38.6999 35.4L35.1999 38.9C35.0999 39 34.9999 39 34.9999 39.1C34.6999 39.2 34.5999 39.2 34.4999 39.2Z" fill="white"/>
</svg>
